<?xml version="1.0" ?><!DOCTYPE svg  PUBLIC '-//W3C//DTD SVG 1.1//EN'  'http://www.w3.org/Graphics/SVG/1.1/DTD/svg11.dtd'><svg enable-background="new 0 0 24 24" height="24px" id="Layer_1" version="1.1" viewBox="0 0 24 24" width="24px" xml:space="preserve" xmlns="http://www.w3.org/2000/svg" xmlns:xlink="http://www.w3.org/1999/xlink"><path d="M24,21.6L19.7,0.8c-0.1-0.5-0.6-0.9-1.2-0.8l-5.1,1C13.3,1,13.2,1,13,1H7H1C0.4,1,0,1.4,0,2v21c0,0.6,0.4,1,1,1h6h6  c0.6,0,1-0.4,1-1v-9.9l2.1,10.1c0.1,0.5,0.6,0.9,1.2,0.8l5.9-1.2C23.7,22.7,24.1,22.2,24,21.6z M2,3h4v8H2V3z M2,12h4v7H2V12z M2,20  h4v2H2V20z M12,22H8v-2h4V22z M12,19H8v-7h4V19z M12,11H8V3h3.9L12,3.4V11z M14,3.1L14,3.1l3.9-0.8l1.6,7.9l-4,0.8L14,3.1z   M17.2,18.9L15.8,12l4-0.8l1.4,6.9L17.2,18.9z M17.8,21.8l-0.4-2l4-0.8l0.4,2L17.8,21.8z"/></svg>